<svg xmlns="http://www.w3.org/2000/svg" viewBox="0 0 300 300" width="300" height="300">
<defs><linearGradient id="g" x1="0" y1="0" x2="1" y2="1"><stop offset="0" stop-color="#2A2580"/><stop offset="1" stop-color="#5B5BD6"/></linearGradient>
<pattern id="h" width="12" height="12" patternUnits="userSpaceOnUse" patternTransform="rotate(45)"><rect width="5" height="12" fill="#fff"/></pattern></defs>
<rect x="6" y="6" width="288" height="288" rx="64" fill="url(#g)"/>
<g fill="#fff"><rect x="52" y="140" width="40" height="110" rx="4"/><rect x="104" y="112" width="40" height="138" rx="4"/></g>
<rect x="161" y="131" width="35" height="114" rx="3" fill="none" stroke="#fff" stroke-width="9"/>
<rect x="208" y="96" width="40" height="154" rx="4" fill="url(#h)"/><rect x="208" y="96" width="40" height="154" rx="4" fill="none" stroke="#fff" stroke-width="5"/>
<rect x="44" y="84" width="212" height="6" rx="3" fill="#fff" opacity=".7"/>
<rect x="56" y="58" width="32" height="26" rx="3" fill="#86EFAC"/><rect x="108" y="44" width="32" height="40" rx="3" fill="#86EFAC"/><rect x="161" y="90" width="35" height="22" rx="3" fill="#FDA4AF"/><rect x="212" y="52" width="32" height="32" rx="3" fill="#86EFAC"/>
</svg>
