<svg xmlns="http://www.w3.org/2000/svg" viewBox="0 0 300 300" width="300" height="300">
<defs><linearGradient id="g" x1="0" y1="0" x2="1" y2="1"><stop offset="0" stop-color="#9D174D"/><stop offset="1" stop-color="#EC4899"/></linearGradient>
<pattern id="h" width="12" height="12" patternUnits="userSpaceOnUse" patternTransform="rotate(45)"><rect width="5" height="12" fill="#fff"/></pattern></defs>
<rect x="6" y="6" width="288" height="288" rx="64" fill="url(#g)"/>
<g fill="#fff"><rect x="44" y="62" width="88" height="34" rx="6"/><rect x="138" y="62" width="40" height="34" rx="6" opacity=".45"/><rect x="184" y="62" width="72" height="34" rx="6"/>
<rect x="44" y="130" width="46" height="34" rx="6" opacity=".45"/><rect x="96" y="130" width="112" height="34" rx="6"/><rect x="214" y="130" width="42" height="34" rx="6" fill="#FDE68A"/>
<rect x="44" y="198" width="132" height="34" rx="6"/><rect x="182" y="198" width="74" height="34" rx="6" opacity=".45"/></g>
<g fill="#FDE68A" stroke="#831843" stroke-width="4"><circle cx="110" cy="112" r="9"/><circle cx="196" cy="180" r="9"/><circle cx="150" cy="248" r="9"/></g>
</svg>
